<?xml version="1.0" encoding="utf-8"?>
<!-- Generator: Adobe Illustrator 20.0.0, SVG Export Plug-In . SVG Version: 6.00 Build 0)  -->
<svg version="1.1" id="Layer_1" xmlns="http://www.w3.org/2000/svg" xmlns:xlink="http://www.w3.org/1999/xlink" x="0px" y="0px"
	 viewBox="0 0 254 31.3" style="enable-background:new 0 0 254 31.3;" xml:space="preserve">
<style type="text/css">
	.st0{fill:none;stroke:#B3B2B3;stroke-width:0.5;stroke-miterlimit:10;}
	.st1{fill:#00B189;stroke:#98C93D;stroke-width:2;stroke-miterlimit:10;}
	.st2{fill:#00B189;}
</style>
<polyline class="st0" points="2.1,14.6 29.8,7.1 63.3,19.2 78.5,13.2 106.3,16.9 118.5,21.6 128.6,12.3 137.4,16.9 167.3,23.9 
	190.8,23.9 200,16.9 215.6,11.3 230.4,21.2 252.8,11.3 "/>
<path class="st1" d="M189.2,2.3"/>
<circle class="st2" cx="14.2" cy="11.3" r="2.3"/>
<circle class="st2" cx="45.2" cy="12.3" r="2.3"/>
<circle class="st2" cx="71.5" cy="15.5" r="2.3"/>
<circle class="st2" cx="90.7" cy="14.6" r="2.3"/>
<circle class="st2" cx="112.4" cy="19.3" r="2.3"/>
<circle class="st2" cx="124" cy="16.5" r="2.3"/>
<circle class="st2" cx="151.5" cy="20.1" r="2.3"/>
<circle class="st2" cx="132.7" cy="14.2" r="2.3"/>
<circle class="st2" cx="179.1" cy="23.9" r="2.3"/>
<circle class="st2" cx="240.2" cy="17" r="2.3"/>
<circle class="st2" cx="195.4" cy="20.1" r="2.3"/>
<circle class="st2" cx="206.8" cy="14.2" r="2.3"/>
<circle class="st2" cx="223" cy="16.5" r="2.3"/>
</svg>
